<svg id="activity" xmlns="http://www.w3.org/2000/svg" width="35.69" height="27.957" viewBox="0 0 35.69 27.957">
  <path id="Path_12" data-name="Path 12" d="M24,152h3.569v13.086H24Zm0,0" transform="translate(-22.215 -140.698)" fill="#4f6fc5"/>
  <path id="Path_13" data-name="Path 13" d="M24,152h3.569v13.086H24Zm0,0" transform="translate(-22.215 -140.698)" fill="#4f6fc5"/>
  <path id="Path_14" data-name="Path 14" d="M120,104h3.569v16.655H120Zm0,0" transform="translate(-111.077 -96.267)" fill="#4f6fc5"/>
  <path id="Path_15" data-name="Path 15" d="M120,104h3.569v16.655H120Zm0,0" transform="translate(-111.077 -96.267)" fill="#4f6fc5"/>
  <path id="Path_16" data-name="Path 16" d="M216,184h3.569v10.707H216Zm0,0" transform="translate(-199.939 -170.319)" fill="#4f6fc5"/>
  <path id="Path_17" data-name="Path 17" d="M216,184h3.569v10.707H216Zm0,0" transform="translate(-199.939 -170.319)" fill="#4f6fc5"/>
  <path id="Path_18" data-name="Path 18" d="M312,96h3.569v17.25H312Zm0,0" transform="translate(-288.802 -88.862)" fill="#4f6fc5"/>
  <path id="Path_19" data-name="Path 19" d="M408,0h3.569V24.388H408Zm0,0" transform="translate(-377.664)" fill="#4f6fc5"/>
  <path id="Path_20" data-name="Path 20" d="M312,96h3.569v17.25H312Zm0,0" transform="translate(-288.802 -88.862)" fill="#4f6fc5"/>
  <path id="Path_21" data-name="Path 21" d="M408,0h3.569V24.388H408Zm0,0" transform="translate(-377.664)" fill="#4f6fc5"/>
  <path id="Path_22" data-name="Path 22" d="M35.1,360H.595a.595.595,0,1,0,0,1.19H35.1a.595.595,0,1,0,0-1.19Zm0,0" transform="translate(0 -333.232)" fill="#4f6fc5"/>
</svg>
