<svg xmlns="http://www.w3.org/2000/svg" width="16.85" height="15.858" viewBox="0 0 16.85 15.858">
  <path id="Path_92" data-name="Path 92" d="M16.753,16.173a.54.54,0,0,0-.42-.231L5.88,15.491a.541.541,0,0,0-.046,1.08l9.745.42L13.662,22.97H5.136L3.6,14.582a.541.541,0,0,0-.334-.405L.738,13.186a.541.541,0,1,0-.4,1.006l2.243.881,1.568,8.535a.541.541,0,0,0,.532.443h.26L4.352,25.7a.451.451,0,0,0,.424.6h.416a1.622,1.622,0,1,0,2.411,0h3.536a1.622,1.622,0,1,0,2.411,0h.506a.451.451,0,1,0,0-.9H5.417L5.9,24.051h8.153a.54.54,0,0,0,.515-.376l2.253-7.028A.539.539,0,0,0,16.753,16.173ZM6.4,28.106a.721.721,0,1,1,.721-.721A.722.722,0,0,1,6.4,28.106Zm5.947,0a.721.721,0,1,1,.721-.721A.722.722,0,0,1,12.344,28.106Z" transform="translate(0 -13.148)" fill="#fff"/>
</svg>
