<svg xmlns="http://www.w3.org/2000/svg" width="43" height="43" viewBox="0 0 43 43">
  <g id="menu" transform="translate(-501 -42)">
    <path id="Shape_1" data-name="Shape 1" d="M522.6,69H513V67h9.6Zm-3.2-4.5H513v-2h6.4ZM529,60H513V58h16Z" fill="#3a3c41"/>
    <g id="back" transform="translate(-1423)">
      <rect id="Rectangle_11_copy_2" data-name="Rectangle 11 copy 2" width="43" height="43" rx="12" transform="translate(1924 42)" fill="#4f6fc5"/>
      <path id="Shape_11" data-name="Shape 11" d="M1953,62.012h-11.859l3.63-4.354a1.008,1.008,0,0,0,.226-.731,1,1,0,0,0-.356-.677,1,1,0,0,0-1.411.13l-5,5.992a1.05,1.05,0,0,0-.089.15.126.126,0,0,1-.071.13.957.957,0,0,0,0,.719.126.126,0,0,0,.071.13,1.039,1.039,0,0,0,.089.15l5,5.992a1,1,0,0,0,1.727-.936,1.025,1.025,0,0,0-.186-.343l-3.63-4.354H1953a1,1,0,1,0,0-2" fill="#fff"/>
    </g>
  </g>
</svg>
