<svg xmlns="http://www.w3.org/2000/svg" width="60.054" height="85.783" viewBox="0 0 60.054 85.783">
  <g id="Group_83" data-name="Group 83" transform="translate(-4.038 2)">
    <g id="Page-1" transform="translate(4.038 -2)">
      <g id="_026---Chair" data-name="026---Chair">
        <path id="svg-8087" d="M15.507,11.191l.286-3.2a24.15,24.15,0,0,1,3.388-.749,1.43,1.43,0,1,0-.45-2.825,21.071,21.071,0,0,0-4.882,1.26,1.43,1.43,0,0,0-.825,1.17l-.369,4.088a1.43,1.43,0,0,0,1.3,1.554h.129a1.43,1.43,0,0,0,1.427-1.3Z" transform="translate(4.009 1.89)" fill="#4f6fc5"/>
        <path id="Shape" d="M11.009,72.916a1.43,1.43,0,0,0,1.43-1.43V56.245a147.638,147.638,0,0,0,18.586.944,147.669,147.669,0,0,0,18.586-.944V71.486a1.43,1.43,0,1,0,2.859,0V55.8c.492-.09.965-.183,1.421-.286a6.139,6.139,0,0,1,4.3,5.963V84.353a1.43,1.43,0,1,0,2.859,0V61.478A8.55,8.55,0,0,0,57.7,54.454q.515-.189.976-.392a2.848,2.848,0,0,0,1.69-2.592V45.851a1.314,1.314,0,0,0-.027-.134,2.847,2.847,0,0,0-1.014-2.075L53.775,39.02a4.262,4.262,0,0,1-1.524-2.9c-.638-6.9-2.445-26.746-2.639-29.086C49.054.339,34.027,0,31.025,0S13,.339,12.439,7.027c-.2,2.345-2.013,22.188-2.645,29.089a4.262,4.262,0,0,1-1.524,2.9L2.722,43.642a2.839,2.839,0,0,0-1.007,2.075,1.018,1.018,0,0,0-.029.134V51.47a2.849,2.849,0,0,0,1.7,2.595c.3.134.629.265.969.389A8.55,8.55,0,0,0,1,61.478V84.353a1.43,1.43,0,1,0,2.859,0V61.478a6.136,6.136,0,0,1,4.3-5.958c.455.1.929.192,1.421.286v15.68a1.43,1.43,0,0,0,1.43,1.43ZM4.547,51.47V48.881c4.8,1.588,14.886,2.589,26.478,2.589s21.685-1,26.483-2.591v2.573c-4.4,1.934-13.06,2.877-26.483,2.877S8.94,53.387,4.547,51.47Zm5.56-10.254a7.1,7.1,0,0,0,2.541-4.84c.632-6.906,2.445-26.76,2.646-29.11.247-3,9.533-4.406,15.731-4.406S46.509,4.265,46.752,7.27c.2,2.346,2.013,22.2,2.645,29.108a7.1,7.1,0,0,0,2.541,4.838l5.547,4.622.02-.024v.02c-3.727,1.633-14.613,2.777-26.48,2.777S8.247,47.467,4.56,45.838Z" transform="translate(-0.998 0)" fill="#4f6fc5"/>
        <path id="Shape-2" data-name="Shape" d="M36.128,25.54l.715-5.719A4.289,4.289,0,0,0,32.586,15h-14.3a4.289,4.289,0,0,0-4.256,4.821l.715,5.719A4.289,4.289,0,0,0,19,29.3H31.872a4.289,4.289,0,0,0,4.256-3.757Zm-18.542-.355-.715-5.719a1.43,1.43,0,0,1,1.418-1.607h14.3A1.43,1.43,0,0,1,34,19.466l-.715,5.719a1.43,1.43,0,0,1-1.418,1.252H19a1.43,1.43,0,0,1-1.418-1.252Z" transform="translate(4.589 6.446)" fill="#4f6fc5"/>
      </g>
    </g>
  </g>
</svg>
