<svg id="chat" xmlns="http://www.w3.org/2000/svg" width="34.777" height="32.605" viewBox="0 0 34.777 32.605">
  <g id="Group_15" data-name="Group 15" transform="translate(0 0)">
    <g id="Group_14" data-name="Group 14">
      <path id="Path_36" data-name="Path 36" d="M25.607,15.988H3.057A3.06,3.06,0,0,0,0,19.045v16.3A3.059,3.059,0,0,0,3.057,38.4H6.113V43.5a1.02,1.02,0,0,0,1.739.721L13.368,38.7a1.017,1.017,0,0,1,.721-.3H25.607a3.06,3.06,0,0,0,3.057-3.057v-16.3A3.06,3.06,0,0,0,25.607,15.988ZM5.094,22.1h14.4a1.019,1.019,0,0,1,0,2.038H5.094a1.019,1.019,0,1,1,0-2.038ZM15.419,32.29H5.094a1.019,1.019,0,1,1,0-2.038H15.419a1.019,1.019,0,1,1,0,2.038Zm8.151-4.075H5.094a1.019,1.019,0,1,1,0-2.038H23.57a1.019,1.019,0,1,1,0,2.038Z" transform="translate(0 -15.988)" fill="#4f6fc5"/>
    </g>
  </g>
  <g id="Group_17" data-name="Group 17" transform="translate(12.473 4.075)">
    <g id="Group_16" data-name="Group 16" transform="translate(0 0)">
      <path id="Path_37" data-name="Path 37" d="M202.878,75.989h-1.005V91.272a5.112,5.112,0,0,1-5.108,5.094H185.8l-2.174,2.024h8.637l5.815,5.828a1.019,1.019,0,0,0,1.739-.72V98.39h3.057a3.048,3.048,0,0,0,3.057-3.043v-16.3A3.06,3.06,0,0,0,202.878,75.989Z" transform="translate(-183.631 -75.989)" fill="#4f6fc5"/>
    </g>
  </g>
</svg>
