<svg xmlns="http://www.w3.org/2000/svg" width="22.725" height="13.546" viewBox="0 0 22.725 13.546">
  <g id="eye" transform="translate(0 -98.725)">
    <path id="Path_3" data-name="Path 3" d="M11.362,98.725c-4.342,0-8.279,2.375-11.185,6.234a.9.9,0,0,0,0,1.074c2.905,3.863,6.843,6.238,11.185,6.238s8.279-2.375,11.185-6.234a.9.9,0,0,0,0-1.074C19.642,101.1,15.7,98.725,11.362,98.725Zm.311,11.543a4.78,4.78,0,1,1,4.458-4.458A4.783,4.783,0,0,1,11.674,110.268Zm-.144-2.2a2.574,2.574,0,1,1,2.4-2.4A2.569,2.569,0,0,1,11.53,108.064Z" transform="translate(0 0)" fill="#a4a4a4"/>
  </g>
</svg>
