<svg id="svg-1694" xmlns="http://www.w3.org/2000/svg" width="44.096" height="94.491" viewBox="0 0 44.096 94.491">
  <path id="Path_59" data-name="Path 59" d="M181.8,49.89V42.777a4.732,4.732,0,0,0-3.15-4.454v-3.65a6.265,6.265,0,0,0-3.482-5.634l-1.657-.829a1.573,1.573,0,0,1-.855-1.631l.363-2.539a7.038,7.038,0,1,0-13.936,0l.363,2.54a1.573,1.573,0,0,1-.855,1.63l-1.657.829a6.265,6.265,0,0,0-3.482,5.635v3.65a4.732,4.732,0,0,0-3.15,4.454V49.89A17.412,17.412,0,0,0,144,63.25v39.372a7.883,7.883,0,0,0,7.874,7.874h28.348a7.883,7.883,0,0,0,7.874-7.874V63.25a17.412,17.412,0,0,0-6.3-13.36ZM156.6,34.673a3.132,3.132,0,0,1,1.741-2.817L160,31.027a4.718,4.718,0,0,0,2.564-4.894l-.363-2.541a3.889,3.889,0,1,1,7.7,0l-.363,2.541a4.718,4.718,0,0,0,2.564,4.894l1.657.829a3.132,3.132,0,0,1,1.741,2.817v3.379H156.6Zm-3.15,8.1a1.577,1.577,0,0,1,1.575-1.575h22.048a1.577,1.577,0,0,1,1.575,1.575v6.3h-25.2Zm31.5,59.845a4.73,4.73,0,0,1-4.725,4.725H151.874a4.73,4.73,0,0,1-4.725-4.725V63.25a14.247,14.247,0,0,1,5.265-11.024h27.266a14.247,14.247,0,0,1,5.265,11.024Z" transform="translate(-144 -16.005)" fill="#4f6fc5"/>
  <path id="Path_60" data-name="Path 60" d="M179.519,222.192l2.953,1.1a7.909,7.909,0,0,1,1.516-2.517l-2.351-2.1a11.055,11.055,0,0,0-2.118,3.514Z" transform="translate(-172.527 -178.779)" fill="#4f6fc5"/>
  <path id="Path_61" data-name="Path 61" d="M176,256h3.15v12.6H176Z" transform="translate(-169.701 -208.755)" fill="#4f6fc5"/>
  <path id="Path_62" data-name="Path 62" d="M280,272h9.449v3.15H280Z" transform="translate(-253.227 -221.605)" fill="#4f6fc5"/>
  <path id="Path_63" data-name="Path 63" d="M296,304h6.3v3.15H296Z" transform="translate(-266.078 -247.306)" fill="#4f6fc5"/>
  <path id="Path_64" data-name="Path 64" d="M296,240h6.3v3.15H296Z" transform="translate(-266.078 -195.905)" fill="#4f6fc5"/>
  <path id="Path_65" data-name="Path 65" d="M280,336h9.449v3.15H280Z" transform="translate(-253.227 -273.006)" fill="#4f6fc5"/>
  <path id="Path_66" data-name="Path 66" d="M296,368h6.3v3.15H296Z" transform="translate(-266.078 -298.707)" fill="#4f6fc5"/>
  <path id="Path_67" data-name="Path 67" d="M280,400h9.449v3.15H280Z" transform="translate(-253.227 -324.407)" fill="#4f6fc5"/>
  <path id="Path_68" data-name="Path 68" d="M296,432h6.3v3.15H296Z" transform="translate(-266.078 -350.108)" fill="#4f6fc5"/>
</svg>
