<svg xmlns="http://www.w3.org/2000/svg" width="82.748" height="82.584" viewBox="0 0 82.748 82.584">
  <path id="Path_69" data-name="Path 69" d="M.355,82.728a1.214,1.214,0,0,0,1.715,0L16.277,68.522l.71.709a2.991,2.991,0,0,0,3.069.71l4.075-1.4a5.43,5.43,0,0,0,6.969-.6l33.06-33.06.469.469a3.117,3.117,0,0,0,4.4,0l1.081-1.082a3.116,3.116,0,0,0,0-4.4L66.753,26.5l2.619-2.619a1.212,1.212,0,1,0-1.714-1.714l-2.619,2.619-6.577-6.577L67.375,9.3l6.578,6.577-2.3,2.3a1.212,1.212,0,1,0,1.714,1.714l2.3-2.295.689.689a3.112,3.112,0,0,0,4.4,0L81.839,17.2a3.116,3.116,0,0,0,0-4.4L78.382,9.338a1.212,1.212,0,0,0-1.714,1.715l3.456,3.456a.69.69,0,0,1,0,.973l-1.082,1.081a.688.688,0,0,1-.972,0L66.686,5.18a.689.689,0,0,1,0-.973l1.082-1.082a.687.687,0,0,1,.973,0l3.927,3.927a1.212,1.212,0,0,0,1.714-1.715L70.456,1.411a3.11,3.11,0,0,0-4.4,0L64.972,2.493a3.116,3.116,0,0,0,0,4.4l.689.689L56.747,16.5l-3.358-3.359a3.111,3.111,0,0,0-4.4,0L47.906,14.22a3.11,3.11,0,0,0,0,4.4l.468.469L15.314,52.15a5.435,5.435,0,0,0-.515,7.092l-1.393,4.049a2.993,2.993,0,0,0,.709,3.069l.447.446L.355,81.013a1.214,1.214,0,0,0,0,1.715ZM49.62,15.935,50.7,14.853a.688.688,0,0,1,.973,0L68.4,31.576a.689.689,0,0,1,0,.973l-1.082,1.081a.689.689,0,0,1-.973,0L49.619,16.908a.687.687,0,0,1,0-.972Zm.468,4.87L62.445,33.162,60.39,35.216,48.034,22.86ZM17.029,53.865,46.32,24.574,58.676,36.931l-2.787,2.787-2.146-2.146a1.212,1.212,0,0,0-1.715,1.714l2.146,2.146-2.893,2.893-2.146-2.146a1.212,1.212,0,0,0-1.715,1.714l2.146,2.146-2.893,2.893L44.53,46.785A1.212,1.212,0,1,0,42.815,48.5l2.146,2.146-2.892,2.892-2.146-2.146a1.212,1.212,0,1,0-1.714,1.714l2.146,2.146-2.892,2.893L35.316,56A1.212,1.212,0,0,0,33.6,57.712l2.146,2.146-2.893,2.893L30.709,60.6A1.212,1.212,0,0,0,29,62.319l2.146,2.146-1.756,1.756a3.009,3.009,0,0,1-4.256,0l-8.1-8.1a3.009,3.009,0,0,1,0-4.258ZM15.7,64.08l.987-2.871,5.451,5.451-2.871.987a.552.552,0,0,1-.566-.131L15.83,64.646a.554.554,0,0,1-.131-.566Zm0,0" transform="translate(-0.001 -0.499)" fill="#4f6fc5"/>
</svg>
