<svg xmlns="http://www.w3.org/2000/svg" width="54.616" height="84.072" viewBox="0 0 54.616 84.072">
  <g id="Group_81" data-name="Group 81" transform="translate(-84.136 0)">
    <g id="Group_70" data-name="Group 70" transform="translate(109.343 36.459)">
      <g id="Group_69" data-name="Group 69">
        <path id="Path_53" data-name="Path 53" d="M229.536,208.272a1.4,1.4,0,0,0-1.4,1.4v22.407a1.4,1.4,0,1,0,2.8,0V209.672A1.4,1.4,0,0,0,229.536,208.272Z" transform="translate(-228.136 -208.272)" fill="#4f6fc5"/>
      </g>
    </g>
    <g id="Group_72" data-name="Group 72" transform="translate(98.13 36.4)">
      <g id="Group_71" data-name="Group 71" transform="translate(0)">
        <path id="Path_54" data-name="Path 54" d="M171.069,231.544l-4.2-22.407a1.4,1.4,0,1,0-2.772.4q.008.059.022.117l4.2,22.407a1.4,1.4,0,0,0,2.774-.258A1.419,1.419,0,0,0,171.069,231.544Z" transform="translate(-164.081 -207.936)" fill="#4f6fc5"/>
      </g>
    </g>
    <g id="Group_74" data-name="Group 74" transform="translate(116.346 36.398)">
      <g id="Group_73" data-name="Group 73">
        <path id="Path_55" data-name="Path 55" d="M274.067,207.963a1.4,1.4,0,0,0-1.681,1.048c-.009.039-.016.078-.022.117l-4.2,22.407a1.4,1.4,0,1,0,2.75.517h0l4.2-22.407A1.4,1.4,0,0,0,274.067,207.963Z" transform="translate(-268.139 -207.926)" fill="#4f6fc5"/>
      </g>
    </g>
    <g id="Group_76" data-name="Group 76" transform="translate(84.136 0)">
      <g id="Group_75" data-name="Group 75" transform="translate(0 0)">
        <path id="Path_56" data-name="Path 56" d="M137.352,30.857h-.633a25.908,25.908,0,1,0-50.863,0h-.319a1.4,1.4,0,1,0,0,2.8h1.022a26.479,26.479,0,0,0,1.2,3.106L98.14,67.5V75.67a4.2,4.2,0,0,0,4.2,4.2h3a5.575,5.575,0,0,0,10.806,0h3a4.2,4.2,0,0,0,4.2-4.2V67.52l11.027-29.844A26.282,26.282,0,0,0,136,33.658h1.349a1.4,1.4,0,0,0,0-2.8ZM110.744,81.272a2.8,2.8,0,0,1-2.424-1.4h4.848A2.8,2.8,0,0,1,110.744,81.272Zm9.8-5.6a1.4,1.4,0,0,1-1.4,1.4h-16.8a1.4,1.4,0,0,1-1.4-1.4v-1.4h19.606Zm0-4.2H100.941v-2.8h19.606Zm11.3-34.995a1.538,1.538,0,0,0-.067.154L120.967,65.867H100.546L90.385,35.8c-.017-.048-.035-.094-.056-.14-.305-.657-.56-1.325-.805-2h43.536A23.336,23.336,0,0,1,131.842,36.474Zm2.025-5.617H88.72a22.976,22.976,0,0,1,3.1-17.344v-.006a23.107,23.107,0,0,1,42.047,17.35Z" transform="translate(-84.136 0)" fill="#4f6fc5"/>
      </g>
    </g>
    <g id="Group_78" data-name="Group 78" transform="translate(100.14 8.716)">
      <g id="Group_77" data-name="Group 77" transform="translate(0)">
        <path id="Path_57" data-name="Path 57" d="M179.644,49.792a19.541,19.541,0,0,0-4.084,2.438l1.714,2.214a16.916,16.916,0,0,1,3.5-2.091Z" transform="translate(-175.56 -49.792)" fill="#4f6fc5"/>
      </g>
    </g>
    <g id="Group_80" data-name="Group 80" transform="translate(92.538 13.811)">
      <g id="Group_79" data-name="Group 79" transform="translate(0)">
        <path id="Path_58" data-name="Path 58" d="M136.93,78.9a19.605,19.605,0,0,0-4.794,12.845h2.8a16.8,16.8,0,0,1,4.107-11.009Z" transform="translate(-132.136 -78.896)" fill="#4f6fc5"/>
      </g>
    </g>
  </g>
</svg>
