<svg xmlns="http://www.w3.org/2000/svg" width="26.626" height="26.626" viewBox="0 0 26.626 26.626">
  <g id="logout" transform="translate(0 -0.004)">
    <path id="Path_42" data-name="Path 42" d="M16.641,14.426a1.109,1.109,0,0,0-1.109,1.109v4.438a1.111,1.111,0,0,1-1.11,1.109H11.094V4.441A2.236,2.236,0,0,0,9.583,2.332l-.328-.11h5.168a1.111,1.111,0,0,1,1.11,1.11V6.66a1.109,1.109,0,1,0,2.219,0V3.332A3.332,3.332,0,0,0,14.422,0H2.5a.871.871,0,0,0-.119.024C2.324.024,2.273,0,2.219,0A2.221,2.221,0,0,0,0,2.223V22.192A2.236,2.236,0,0,0,1.511,24.3l6.677,2.226a2.3,2.3,0,0,0,.688.1,2.221,2.221,0,0,0,2.219-2.219V23.3h3.328a3.332,3.332,0,0,0,3.328-3.328V15.536a1.109,1.109,0,0,0-1.109-1.109Zm0,0" fill="#4f6fc5"/>
    <path id="Path_43" data-name="Path 43" d="M289.211,111.428l-4.438-4.438a1.109,1.109,0,0,0-1.894.784V111.1h-4.438a1.109,1.109,0,1,0,0,2.219h4.438v3.328a1.109,1.109,0,0,0,1.894.785L289.211,113A1.108,1.108,0,0,0,289.211,111.428Zm0,0" transform="translate(-262.91 -101.115)" fill="#4f6fc5"/>
  </g>
</svg>
