<svg xmlns="http://www.w3.org/2000/svg" width="64.357" height="73.098" viewBox="0 0 64.357 73.098">
  <g id="Group_82" data-name="Group 82" transform="translate(-30.613)">
    <path id="Path_70" data-name="Path 70" d="M288.706,218.879a3.741,3.741,0,0,0,3.737-3.737v-1.33a3.737,3.737,0,1,0-7.474,0v1.33A3.741,3.741,0,0,0,288.706,218.879Zm-1.6-5.068a1.6,1.6,0,1,1,3.191,0v1.33a1.6,1.6,0,1,1-3.191,0Z" transform="translate(-218.042 -180.082)" fill="#4f6fc5"/>
    <path id="Path_71" data-name="Path 71" d="M348.88,410.734a1.071,1.071,0,0,0-1.071,1.071v3.973a1.071,1.071,0,0,0,1.071,1.071h9.474a1.071,1.071,0,0,0,1.071-1.071V411.8a1.071,1.071,0,0,0-1.071-1.071Zm8.4,3.973h-7.332v-1.831h7.332Z" transform="translate(-271.91 -352.094)" fill="#4f6fc5"/>
    <path id="Path_72" data-name="Path 72" d="M94.97,6.778h0C94.969,4.7,92.3,3.1,86.8,1.872a1.071,1.071,0,1,0-.467,2.09c6.218,1.388,6.5,2.8,6.5,2.816s-.06.876-3.4,1.983c-8.9,2.949-29.838,3.664-42.805,1-6.98-1.432-7.293-2.972-7.293-2.987s.313-1.555,7.293-2.987a101.766,101.766,0,0,1,19.457-1.65A110.519,110.519,0,0,1,82.855,3.309a1.071,1.071,0,0,0,.334-2.115A112.656,112.656,0,0,0,66.078,0,103.919,103.919,0,0,0,46.191,1.694c-6.059,1.243-9,2.906-9,5.085v10.54l-4.1,6.828a17.332,17.332,0,0,0,4.1,22.5V66.32c0,2.179,2.945,3.842,9,5.085A103.917,103.917,0,0,0,66.078,73.1,103.92,103.92,0,0,0,85.966,71.4c6.059-1.243,9-2.906,9-5.085v-12.8a1.071,1.071,0,0,0-2.142,0v12.8c0,.015-.313,1.555-7.293,2.987a101.765,101.765,0,0,1-19.457,1.65,101.767,101.767,0,0,1-19.457-1.65c-6.98-1.432-7.293-2.972-7.293-2.987V48.1a17.329,17.329,0,0,0,5.893,2.077,32.525,32.525,0,0,0,17.794-1.306,31.539,31.539,0,0,0,13.1-9.252L87.6,25.931a3.735,3.735,0,0,0,5.224,2.484v21.5a1.071,1.071,0,1,0,2.142,0V6.778h0Zm-60.79,32.7a14.97,14.97,0,0,1,.744-14.232l2.263-3.77V43.816A15.347,15.347,0,0,1,34.179,39.48ZM84.3,26.532v-3.76a1.595,1.595,0,0,1,3.189-.04Zm6.929.1a1.6,1.6,0,0,1-1.6-1.6V22.772a3.737,3.737,0,0,0-7.474,0V27.39a1.6,1.6,0,0,1-3.191,0V21.126a3.737,3.737,0,1,0-7.474,0v3.911a1.6,1.6,0,0,1-3.191,0v-.593a3.737,3.737,0,0,0-7.474,0V32.6a1.6,1.6,0,1,1-3.191,0V28.61a1.071,1.071,0,1,0-2.142,0V32.6a3.737,3.737,0,1,0,7.474,0V24.443a1.6,1.6,0,0,1,3.191,0v.593a3.737,3.737,0,0,0,7.475,0V21.126a1.6,1.6,0,1,1,3.191,0V27.39a3.741,3.741,0,0,0,3.62,3.734l-5.975,7.118a29.4,29.4,0,0,1-12.209,8.623,30.4,30.4,0,0,1-16.708,1.2A15.2,15.2,0,0,1,39.328,45.6V9.621c3.772,2.187,11.817,3.15,16.17,3.513V25.005a1.071,1.071,0,0,0,2.142,0V13.292c10.332.666,28.718.078,35.188-3.671V25.037A1.6,1.6,0,0,1,91.233,26.632Z" fill="#4f6fc5"/>
  </g>
</svg>
