<svg xmlns="http://www.w3.org/2000/svg" width="29.841" height="29.841" viewBox="0 0 29.841 29.841">
  <g id="user_2_" data-name="user (2)" transform="translate(0)">
    <path id="Path_44" data-name="Path 44" d="M133.9,335.266a7.565,7.565,0,0,0-7.557,7.557c0,.241.012.479.034.715a14.958,14.958,0,0,0,15.045,0c.022-.235.034-.474.034-.715a7.565,7.565,0,0,0-7.557-7.557Zm0,0" transform="translate(-118.98 -315.726)" fill="#4f6fc5"/>
    <path id="Path_45" data-name="Path 45" d="M25.47,4.37a14.92,14.92,0,0,0-21.1,21.1A15.123,15.123,0,0,0,5.628,26.6a9.323,9.323,0,0,1,5.756-8.105,6.493,6.493,0,1,1,7.072,0A9.323,9.323,0,0,1,24.211,26.6a15.165,15.165,0,0,0,1.259-1.125,14.92,14.92,0,0,0,0-21.1Zm0,0" transform="translate(0)" fill="#4f6fc5"/>
    <path id="Path_46" data-name="Path 46" d="M184.089,147.213a4.744,4.744,0,1,0-4.744,4.744A4.749,4.749,0,0,0,184.089,147.213Zm0,0" transform="translate(-164.425 -134.165)" fill="#4f6fc5"/>
  </g>
</svg>
