<svg xmlns="http://www.w3.org/2000/svg" width="66.377" height="66.377" viewBox="0 0 66.377 66.377">
  <g id="Page-1" transform="translate(-21 -5)">
    <g id="_046---Elbow-Pipe" data-name="046---Elbow-Pipe" transform="translate(21 5)">
      <path id="svg-8804" d="M46.711,19.034a1.106,1.106,0,1,0,1.633-1.492A35.489,35.489,0,0,0,22.213,6H21.106a1.106,1.106,0,0,0,0,2.213h1.106a33.271,33.271,0,0,1,24.5,10.822Z" transform="translate(2.126 0.638)" fill="#4f6fc5"/>
      <path id="Shape" d="M17.319,6H15.106a1.106,1.106,0,1,0,0,2.213h2.213a1.106,1.106,0,0,0,0-2.213Z" transform="translate(1.488 0.638)" fill="#4f6fc5"/>
      <path id="Shape-2" data-name="Shape" d="M64.164,53.1V42.039A39.87,39.87,0,0,0,24.338,2.213H13.275A2.213,2.213,0,0,0,11.063,0H2.213A2.213,2.213,0,0,0,0,2.213V33.188A2.213,2.213,0,0,0,2.213,35.4h8.85a2.213,2.213,0,0,0,2.213-2.213H24.338a8.86,8.86,0,0,1,8.85,8.85V53.1a2.213,2.213,0,0,0-2.213,2.213v8.85a2.213,2.213,0,0,0,2.213,2.213H64.164a2.213,2.213,0,0,0,2.213-2.213v-8.85A2.213,2.213,0,0,0,64.164,53.1Zm-53.1-19.913H2.213V2.213h8.85Zm13.275-2.213H13.275V4.425H24.338A37.656,37.656,0,0,1,61.952,42.039V53.1H35.4V42.039A11.075,11.075,0,0,0,24.338,30.976ZM64.164,64.164H33.188v-8.85H64.164Z" transform="translate(0)" fill="#4f6fc5"/>
    </g>
  </g>
</svg>
