<svg xmlns="http://www.w3.org/2000/svg" width="30.892" height="30.766" viewBox="0 0 30.892 30.766">
  <g id="settings_1_" data-name="settings (1)" transform="translate(0 -0.114)">
    <g id="Group_35" data-name="Group 35" transform="translate(0 8.833)">
      <g id="Group_34" data-name="Group 34">
        <path id="Path_51" data-name="Path 51" d="M20.314,27.714a9.247,9.247,0,0,0-.059-2.236l1.693-.755a11.152,11.152,0,0,0-2.044-4.59l-1.694.754a9.277,9.277,0,0,0-1.622-1.539l.664-1.73a11.2,11.2,0,0,0-4.691-1.8L11.9,17.548a9.247,9.247,0,0,0-2.236.059l-.75-1.685a11.193,11.193,0,0,0-4.586,2.056l.745,1.674a9.262,9.262,0,0,0-1.54,1.622L1.8,20.611A11,11,0,0,0,.631,22.853,11.326,11.326,0,0,0,0,25.3l1.73.664A9.247,9.247,0,0,0,1.789,28.2L.1,28.954a11.143,11.143,0,0,0,2.045,4.59l1.693-.754A9.244,9.244,0,0,0,5.456,34.33l-.664,1.731a11.2,11.2,0,0,0,4.691,1.8l.665-1.732a9.275,9.275,0,0,0,2.236-.059l.75,1.684A11.192,11.192,0,0,0,17.72,35.7l-.746-1.674a9.263,9.263,0,0,0,1.54-1.622l1.725.662a11.012,11.012,0,0,0,1.173-2.241,11.2,11.2,0,0,0,.632-2.448Zm-4.6.926a5.026,5.026,0,1,1-2.892-6.492A5.026,5.026,0,0,1,15.714,28.64Z" transform="translate(0 -15.816)" fill="#4f6fc5"/>
      </g>
    </g>
    <g id="Group_37" data-name="Group 37" transform="translate(17.715 0.114)">
      <g id="Group_36" data-name="Group 36">
        <path id="Path_52" data-name="Path 52" d="M43.876,6.933a5.4,5.4,0,0,0-.093-.982l1.3-.75a6.811,6.811,0,0,0-1.792-3.11l-1.3.751a5.347,5.347,0,0,0-1.7-.981V.361a6.641,6.641,0,0,0-3.589,0v1.5a5.363,5.363,0,0,0-1.7.981l-1.3-.751A6.826,6.826,0,0,0,31.9,5.2l1.3.75a5.188,5.188,0,0,0,0,1.965l-1.3.75a6.823,6.823,0,0,0,1.792,3.11l1.3-.751a5.353,5.353,0,0,0,1.7.981v1.5a6.641,6.641,0,0,0,3.589,0v-1.5a5.357,5.357,0,0,0,1.7-.981l1.3.751a6.811,6.811,0,0,0,1.792-3.11l-1.3-.75A5.366,5.366,0,0,0,43.876,6.933ZM38.492,9.447A2.513,2.513,0,1,1,41,6.933,2.513,2.513,0,0,1,38.492,9.447Z" transform="translate(-31.903 -0.114)" fill="#4f6fc5"/>
      </g>
    </g>
  </g>
</svg>
