<svg xmlns="http://www.w3.org/2000/svg" width="30.332" height="35.346" viewBox="0 0 30.332 35.346">
  <g id="shopping-bag" transform="translate(0)">
    <path id="Path_31" data-name="Path 31" d="M166.953,128.037h9.876l-.9-21.606h-4.783v4.014h-2.071v-4.014h-7v4.014H160v-4.014h-4.783l-.264,6.318h12Z" transform="translate(-146.763 -99.084)" fill="#4f6fc5"/>
    <path id="Path_32" data-name="Path 32" d="M54.434,247.555v-19.61H50.25v3.776a4.875,4.875,0,0,1-9.751,0v-3.776H36.315v19.607Z" transform="translate(-36.315 -212.209)" fill="#4f6fc5"/>
    <path id="Path_33" data-name="Path 33" d="M129.729,234.527a2.807,2.807,0,0,0,2.8-2.8v-3.776h-5.608v3.776A2.807,2.807,0,0,0,129.729,234.527Z" transform="translate(-120.67 -212.21)" fill="#4f6fc5"/>
    <path id="Path_34" data-name="Path 34" d="M328.78,453.732h10.142l-.18-4.322H328.78Z" transform="translate(-308.59 -418.385)" fill="#4f6fc5"/>
    <path id="Path_35" data-name="Path 35" d="M230.127,5.573a3.5,3.5,0,0,1,7,0V7.344H239.2V5.573a5.573,5.573,0,1,0-11.146,0V7.344h2.071Z" transform="translate(-214.819)" fill="#4f6fc5"/>
  </g>
</svg>
